HIERARCHY
ROOT hip
{
  OFFSET -0.41853 39.8068 0.154369
  CHANNELS 6 Xposition Yposition Zposition Zrotation Xrotation Yrotation
  JOINT abdomen
  {
    OFFSET 0 7.2397 0
    CHANNELS 6 Xposition Yposition Zposition Zrotation Xrotation Yrotation
    JOINT chest
    {
      OFFSET 0 16.546 0
      CHANNELS 6 Xposition Yposition Zposition Zrotation Xrotation Yrotation
      JOINT neck
      {
        OFFSET 0 34.2149 0
        CHANNELS 6 Xposition Yposition Zposition Zrotation Xrotation Yrotation
        JOINT head
        {
          OFFSET 0 6.2923 0
          CHANNELS 6 Xposition Yposition Zposition Zrotation Xrotation Yrotation
          End Site
          {
            OFFSET 0 21.2161 0
          }
        }
      }
      JOINT lCollar
      {
        OFFSET 4.0639 26.6115 -1.1234
        CHANNELS 6 Xposition Yposition Zposition Zrotation Xrotation Yrotation
        JOINT lShldr
        {
          OFFSET 14.1772 0 0
          CHANNELS 6 Xposition Yposition Zposition Zrotation Xrotation Yrotation
          JOINT lForeArm
          {
            OFFSET 26.1234 0 0
            CHANNELS 6 Xposition Yposition Zposition Zrotation Xrotation Yrotation
            JOINT lHand
            {
              OFFSET 27.7188 0 0
              CHANNELS 6 Xposition Yposition Zposition Zrotation Xrotation Yrotation
              JOINT lThumb1
              {
                OFFSET 2.2979 -0.4685 1.8313
                CHANNELS 6 Xposition Yposition Zposition Zrotation Xrotation Yrotation
                JOINT lThumb2
                {
                  OFFSET 5.2953 0 0
                  CHANNELS 6 Xposition Yposition Zposition Zrotation Xrotation Yrotation
                  JOINT lThumb3
                  {
                    OFFSET 3.0181 0 0
                    CHANNELS 6 Xposition Yposition Zposition Zrotation Xrotation Yrotation
                    End Site
                    {
                      OFFSET 2.6294 0 0
                    }
                  }
                }
              }
              JOINT lIndex1
              {
                OFFSET 9.3793 0.2991 2.5924
                CHANNELS 6 Xposition Yposition Zposition Zrotation Xrotation Yrotation
                JOINT lIndex2
                {
                  OFFSET 4.3461 0 0
                  CHANNELS 6 Xposition Yposition Zposition Zrotation Xrotation Yrotation
                  JOINT lIndex3
                  {
                    OFFSET 2.1666 0 0
                    CHANNELS 6 Xposition Yposition Zposition Zrotation Xrotation Yrotation
                    End Site
                    {
                      OFFSET 2.2048 0 0
                    }
                  }
                }
              }
              JOINT lMid1
              {
                OFFSET 9.4769 0.8376 0.2947
                CHANNELS 6 Xposition Yposition Zposition Zrotation Xrotation Yrotation
                JOINT lMid2
                {
                  OFFSET 4.772 0 0
                  CHANNELS 6 Xposition Yposition Zposition Zrotation Xrotation Yrotation
                  JOINT lMid3
                  {
                    OFFSET 2.8722 0 0
                    CHANNELS 6 Xposition Yposition Zposition Zrotation Xrotation Yrotation
                    End Site
                    {
                      OFFSET 2.0959 0 0
                    }
                  }
                }
              }
              JOINT lRing1
              {
                OFFSET 8.6586 1.0176 -1.7016
                CHANNELS 6 Xposition Yposition Zposition Zrotation Xrotation Yrotation
                JOINT lRing2
                {
                  OFFSET 4.5461 0 0
                  CHANNELS 6 Xposition Yposition Zposition Zrotation Xrotation Yrotation
                  JOINT lRing3
                  {
                    OFFSET 2.506 0 0
                    CHANNELS 6 Xposition Yposition Zposition Zrotation Xrotation Yrotation
                    End Site
                    {
                      OFFSET 2.2023 0 0
                    }
                  }
                }
              }
              JOINT lPinky1
              {
                OFFSET 7.6901 0.6618 -3.9096
                CHANNELS 6 Xposition Yposition Zposition Zrotation Xrotation Yrotation
                JOINT lPinky2
                {
                  OFFSET 3.2119 0 0
                  CHANNELS 6 Xposition Yposition Zposition Zrotation Xrotation Yrotation
                  JOINT lPinky3
                  {
                    OFFSET 1.924 0 0
                    CHANNELS 6 Xposition Yposition Zposition Zrotation Xrotation Yrotation
                    End Site
                    {
                      OFFSET 1.7829 0 0
                    }
                  }
                }
              }
            }
          }
        }
      }
      JOINT rCollar
      {
        OFFSET -4.0677 26.6109 -1.1234
        CHANNELS 6 Xposition Yposition Zposition Zrotation Xrotation Yrotation
        JOINT rShldr
        {
          OFFSET -14.1772 0 0
          CHANNELS 6 Xposition Yposition Zposition Zrotation Xrotation Yrotation
          JOINT rForeArm
          {
            OFFSET -26.1234 0 0
            CHANNELS 6 Xposition Yposition Zposition Zrotation Xrotation Yrotation
            JOINT rHand
            {
              OFFSET -27.7188 0 0
              CHANNELS 6 Xposition Yposition Zposition Zrotation Xrotation Yrotation
              JOINT rThumb1
              {
                OFFSET -2.2979 -0.4684 1.8313
                CHANNELS 6 Xposition Yposition Zposition Zrotation Xrotation Yrotation
                JOINT rThumb2
                {
                  OFFSET -5.2953 0 0
                  CHANNELS 6 Xposition Yposition Zposition Zrotation Xrotation Yrotation
                  JOINT rThumb3
                  {
                    OFFSET -3.0181 0 0
                    CHANNELS 6 Xposition Yposition Zposition Zrotation Xrotation Yrotation
                    End Site
                    {
                      OFFSET -2.6294 0 0
                    }
                  }
                }
              }
              JOINT rIndex1
              {
                OFFSET -9.3793 0.2991 2.5924
                CHANNELS 6 Xposition Yposition Zposition Zrotation Xrotation Yrotation
                JOINT rIndex2
                {
                  OFFSET -4.3461 0 0
                  CHANNELS 6 Xposition Yposition Zposition Zrotation Xrotation Yrotation
                  JOINT rIndex3
                  {
                    OFFSET -2.1666 0 0
                    CHANNELS 6 Xposition Yposition Zposition Zrotation Xrotation Yrotation
                    End Site
                    {
                      OFFSET -2.2048 0 0
                    }
                  }
                }
              }
              JOINT rMid1
              {
                OFFSET -9.4769 0.8376 0.2947
                CHANNELS 6 Xposition Yposition Zposition Zrotation Xrotation Yrotation
                JOINT rMid2
                {
                  OFFSET -4.772 0 0
                  CHANNELS 6 Xposition Yposition Zposition Zrotation Xrotation Yrotation
                  JOINT rMid3
                  {
                    OFFSET -2.8722 0 0
                    CHANNELS 6 Xposition Yposition Zposition Zrotation Xrotation Yrotation
                    End Site
                    {
                      OFFSET -2.0959 0 0
                    }
                  }
                }
              }
              JOINT rRing1
              {
                OFFSET -8.6586 1.0176 -1.7016
                CHANNELS 6 Xposition Yposition Zposition Zrotation Xrotation Yrotation
                JOINT rRing2
                {
                  OFFSET -4.5461 0 0
                  CHANNELS 6 Xposition Yposition Zposition Zrotation Xrotation Yrotation
                  JOINT rRing3
                  {
                    OFFSET -2.506 0 0
                    CHANNELS 6 Xposition Yposition Zposition Zrotation Xrotation Yrotation
                    End Site
                    {
                      OFFSET -2.2023 0 0
                    }
                  }
                }
              }
              JOINT rPinky1
              {
                OFFSET -7.6901 0.6618 -3.9096
                CHANNELS 6 Xposition Yposition Zposition Zrotation Xrotation Yrotation
                JOINT rPinky2
                {
                  OFFSET -3.2119 0 0
                  CHANNELS 6 Xposition Yposition Zposition Zrotation Xrotation Yrotation
                  JOINT rPinky3
                  {
                    OFFSET -1.924 0 0
                    CHANNELS 6 Xposition Yposition Zposition Zrotation Xrotation Yrotation
                    End Site
                    {
                      OFFSET -1.7829 0 0
                    }
                  }
                }
              }
            }
          }
        }
      }
    }
  }
  JOINT lThigh
  {
    OFFSET 8.7379 -0.0029 0.0005
    CHANNELS 6 Xposition Yposition Zposition Zrotation Xrotation Yrotation
    JOINT lShin
    {
      OFFSET 0 -46.6676 0
      CHANNELS 6 Xposition Yposition Zposition Zrotation Xrotation Yrotation
      JOINT lFoot
      {
        OFFSET 0 -40.1476 0
        CHANNELS 6 Xposition Yposition Zposition Zrotation Xrotation Yrotation
        JOINT lToes
        {
          OFFSET 0 -8.8846 14.2294
          CHANNELS 6 Xposition Yposition Zposition Zrotation Xrotation Yrotation
          End Site
          {
            OFFSET 0 0 6.296
          }
        }
      }
    }
  }
  JOINT rThigh
  {
    OFFSET -8.7379 0.0029 -0.0005
    CHANNELS 6 Xposition Yposition Zposition Zrotation Xrotation Yrotation
    JOINT rShin
    {
      OFFSET 0 -46.6676 0
      CHANNELS 6 Xposition Yposition Zposition Zrotation Xrotation Yrotation
      JOINT rFoot
      {
        OFFSET 0 -40.1476 0
        CHANNELS 6 Xposition Yposition Zposition Zrotation Xrotation Yrotation
        JOINT rToes
        {
          OFFSET 0 -8.8846 14.2294
          CHANNELS 6 Xposition Yposition Zposition Zrotation Xrotation Yrotation
          End Site
          {
            OFFSET 0 0 6.296
          }
        }
      }
    }
  }
}
MOTION
Frames:	4
Frame Time:	0.0333333
-7.12733 56.3391 2.09547 -5.27272 -8.26762 -73.9336 0 7.2397 -1.77636e-15 2.22006 8.82638 -7.07964 1.77636e-15 16.546 0 4.62056 19.1324 -17.69 1.77636e-15 34.2149 0 -4.22601 28.3545 3.62157 0 6.2923 0 -1.97327 -36.0444 4.02181 4.0639 26.6115 -1.1234 2.72205 -10.9858 -10.4416 14.1772 1.42109e-14 -5.32907e-15 -70.7659 8.51916 -48.3164 26.1234 0 7.10543e-15 -99.5601 -19.1799 -92.3243 27.7188 0 0 4.12458 -40.9044 16.6549 2.2979 -0.4685 1.8313 37.1841 70.9488 -65.3921 5.2953 1.06581e-14 -7.10543e-15 -13.655 2.43914 4.23131 3.0181 -4.44089e-16 0 40.575 -4.26209 10.4488 9.3793 0.2991 2.5924 -15.7189 8.26171 2.10858 4.3461 1.42109e-14 7.10543e-15 -27.9756 -1.11866 5.59656 2.1666 5.32907e-15 3.55271e-15 -30.2284 -1.57777 5.42757 9.4769 0.8376 0.2947 -15.5574 6.19104 1.80127 4.772 0 3.55271e-15 -44.2332 -4.15799 10.4286 2.8722 3.55271e-15 -7.10543e-15 -38.4625 -3.11873 10.6456 8.6586 1.0176 -1.7016 -12.8096 4.05758 0.0154535 4.5461 1.42109e-14 3.55271e-15 -68.2419 -4.98725 7.35472 2.506 0 3.55271e-15 -26.1841 0.226366 12.1003 7.6901 0.6618 -3.9096 -1.69592 -16.7036 -0.578566 3.2119 -1.42109e-14 -3.55271e-15 -48.2121 -6.75384 15.0249 1.924 3.55271e-15 7.10543e-15 -25.7169 -1.92461 10.2066 -4.0677 26.6109 -1.1234 -9.02656 -10.8195 -10.3836 -14.1772 0 -3.55271e-15 44.1639 54.2506 25.3978 -26.1234 0 0 21.7584 -0.243814 123.175 -27.7188 0 1.42109e-14 -28.3514 0.14526 12.4887 -2.2979 -0.4684 1.8313 -92.2024 72.3373 115.748 -5.2953 -1.42109e-14 0 20.806 -0.164366 -7.80925 -3.0181 -1.42109e-14 0 7.44353 -1.87408 -23.1505 -9.3793 0.2991 2.5924 -0.483211 -1.4043 -4.46204 -4.3461 -1.77636e-15 0 11.3885 0.0663402 -2.1081 -2.1666 0 -1.42109e-14 35.2115 -1.89994 -5.61244 -9.4769 0.8376 0.2947 -5.74449 -0.492517 -10.345 -4.772 -3.55271e-15 0 99.6664 -15.9162 -13.533 -2.8722 -3.55271e-15 1.42109e-14 64.9769 -7.76868 -13.6635 -8.6586 1.0176 -1.7016 4.03544 -11.2401 -9.54017 -4.5461 1.77636e-15 0 113.305 -9.33452 -6.15034 -2.506 -7.10543e-15 0 71.4335 -4.52062 -7.1353 -7.6901 0.6618 -3.9096 -3.28619 -26.781 -8.59919 -3.2119 7.10543e-15 0 88.1866 -18.3453 -18.9248 -1.924 0 -2.84217e-14 68.3114 -11.8989 -18.9734 8.7379 -0.0029 0.0005 52.3309 -52.0277 61.617 5.32907e-15 -46.6676 0 164.821 77.5367 -164.12 -3.55271e-15 -40.1476 -3.55271e-15 -1.60106 -24.3715 7.09433 3.55271e-15 -8.8846 14.2294 0.0001 4.96962e-17 -0 -8.7379 0.0029 -0.0005 -17.958 4.18597 -16.9751 0 -46.6676 0 -127.113 59.4772 100.609 0 -40.1476 0 3.07877 -16.7129 -6.89816 0 -8.8846 14.2294 -3.18055e-15 -3.18055e-15 -3.18055e-15 
-5.82991 56.2997 2.46793 -3.38343 -6.72571 -77.5812 1.77636e-15 7.2397 0 2.43012 7.61945 -6.84682 0 16.546 -8.88178e-16 4.64028 16.7171 -17.0651 0 34.2149 3.55271e-15 -4.13599 28.3012 4.06996 8.88178e-16 6.2923 -1.42109e-14 -1.36664 -35.4348 6.61408 4.0639 26.6115 -1.1234 2.82412 -10.8974 -10.1096 14.1772 0 3.55271e-15 -71.2445 8.96967 -46.7673 26.1234 -1.42109e-14 0 -99.0585 -18.2483 -92.1989 27.7188 0 0 4.28917 -41.3123 16.0641 2.2979 -0.4685 1.8313 37.1841 70.9488 -65.3921 5.2953 -7.10543e-15 -7.10543e-15 -13.655 2.43914 4.23131 3.0181 -8.88178e-16 -7.10543e-15 40.575 -4.26209 10.4488 9.3793 0.2991 2.5924 -15.7189 8.26171 2.10858 4.3461 1.42109e-14 -3.55271e-15 -27.9756 -1.11866 5.59656 2.1666 0 -7.10543e-15 -30.2284 -1.57777 5.42757 9.4769 0.8376 0.2947 -15.5574 6.19104 1.80127 4.772 0 5.32907e-15 -44.2332 -4.15799 10.4286 2.8722 0 7.10543e-15 -38.4625 -3.11873 10.6456 8.6586 1.0176 -1.7016 -12.8096 4.05758 0.0154535 4.5461 0 5.32907e-15 -68.2419 -4.98725 7.35472 2.506 7.10543e-15 1.06581e-14 -26.1841 0.226366 12.1003 7.6901 0.6618 -3.9096 -1.69592 -16.7036 -0.578566 3.2119 1.42109e-14 0 -48.2121 -6.75384 15.0249 1.924 -1.77636e-15 3.55271e-15 -25.7169 -1.92461 10.2066 -4.0677 26.6109 -1.1234 -9.01075 -10.8233 -10.3354 -14.1772 1.42109e-14 2.66454e-15 43.2827 54.9195 25.4693 -26.1234 0 0 21.9196 -0.0171886 123.388 -27.7188 3.55271e-15 0 -28.2496 -0.367664 12.062 -2.2979 -0.4684 1.8313 -92.2024 72.3373 115.748 -5.2953 -7.10543e-15 -7.10543e-15 20.806 -0.164366 -7.80925 -3.0181 -1.42109e-14 0 7.44353 -1.87408 -23.1505 -9.3793 0.2991 2.5924 -0.483211 -1.4043 -4.46204 -4.3461 -5.32907e-15 1.42109e-14 11.3885 0.0663402 -2.1081 -2.1666 3.55271e-15 0 35.2115 -1.89994 -5.61244 -9.4769 0.8376 0.2947 -5.74449 -0.492517 -10.345 -4.772 3.55271e-15 0 99.6664 -15.9162 -13.533 -2.8722 0 0 64.9769 -7.76868 -13.6635 -8.6586 1.0176 -1.7016 4.03544 -11.2401 -9.54017 -4.5461 -1.77636e-15 -1.42109e-14 113.305 -9.33452 -6.15034 -2.506 0 1.42109e-14 71.4335 -4.52062 -7.1353 -7.6901 0.6618 -3.9096 -3.28619 -26.781 -8.59919 -3.2119 0 1.42109e-14 88.1866 -18.3453 -18.9248 -1.924 0 -1.42109e-14 68.3114 -11.8989 -18.9734 8.7379 -0.0029 0.0005 55.3097 -54.1034 63.1702 1.77636e-15 -46.6676 0 162.433 77.2433 -159.207 7.10543e-15 -40.1476 -3.55271e-15 -4.93035 -24.2126 8.46654 3.55271e-15 -8.8846 14.2294 0.0001 0 6.36111e-15 -8.7379 0.0029 -0.0005 -18.6629 4.46164 -21.0946 0 -46.6676 0 -118.532 61.295 93.7383 0 -40.1476 0 1.92678 -11.4382 -8.66207 -3.55271e-15 -8.8846 14.2294 1.59028e-15 0 -6.36111e-15 
-4.26173 54.947 2.71729 -0.883189 -5.33294 -82.2034 0 7.2397 8.88178e-16 2.79262 6.31029 -6.73327 0 16.546 -1.77636e-15 5.19346 14.0278 -17.0362 0 34.2149 -3.55271e-15 -4.13325 28.3114 4.52985 -1.77636e-15 6.2923 -1.42109e-14 -1.27417 -35.1681 9.46712 4.0639 26.6115 -1.1234 2.93437 -10.8 -9.74832 14.1772 0 0 -72.1579 8.4021 -42.0563 26.1234 0 1.42109e-14 -100.059 -13.5134 -91.2764 27.7188 -1.42109e-14 7.10543e-15 3.56252 -39.981 12.5983 2.2979 -0.4685 1.8313 37.1841 70.9488 -65.3921 5.2953 -3.55271e-15 0 -13.655 2.43914 4.23131 3.0181 -1.77636e-15 -7.10543e-15 40.575 -4.26209 10.4488 9.3793 0.2991 2.5924 -15.7189 8.26171 2.10858 4.3461 1.42109e-14 -7.10543e-15 -27.9756 -1.11866 5.59656 2.1666 0 -3.55271e-15 -30.2284 -1.57777 5.42757 9.4769 0.8376 0.2947 -15.5574 6.19104 1.80127 4.772 -1.42109e-14 0 -44.2332 -4.15799 10.4286 2.8722 -3.55271e-15 0 -38.4625 -3.11873 10.6456 8.6586 1.0176 -1.7016 -12.8096 4.05758 0.0154535 4.5461 1.42109e-14 -5.32907e-15 -68.2419 -4.98725 7.35472 2.506 0 0 -26.1841 0.226366 12.1003 7.6901 0.6618 -3.9096 -1.69592 -16.7036 -0.578566 3.2119 0 0 -48.2121 -6.75384 15.0249 1.924 0 -9.32587e-15 -25.7169 -1.92461 10.2066 -4.0677 26.6109 -1.1234 -9.01148 -10.8212 -10.3388 -14.1772 0 -1.77636e-15 42.371 56.145 25.1927 -26.1234 7.10543e-15 0 21.2157 -0.315786 123.659 -27.7188 0 0 -25.8231 -1.64556 11.7657 -2.2979 -0.4684 1.8313 -92.2024 72.3373 115.748 -5.2953 -7.10543e-15 0 20.806 -0.164366 -7.80925 -3.0181 0 0 7.44353 -1.87408 -23.1505 -9.3793 0.2991 2.5924 -0.483211 -1.4043 -4.46204 -4.3461 5.32907e-15 0 11.3885 0.0663402 -2.1081 -2.1666 0 1.42109e-14 35.2115 -1.89994 -5.61244 -9.4769 0.8376 0.2947 -5.74449 -0.492517 -10.345 -4.772 -3.55271e-15 2.84217e-14 99.6664 -15.9162 -13.533 -2.8722 3.55271e-15 0 64.9769 -7.76868 -13.6635 -8.6586 1.0176 -1.7016 4.03544 -11.2401 -9.54017 -4.5461 -1.77636e-15 1.42109e-14 113.305 -9.33452 -6.15034 -2.506 0 0 71.4335 -4.52062 -7.1353 -7.6901 0.6618 -3.9096 -3.28619 -26.781 -8.59919 -3.2119 -7.10543e-15 -1.42109e-14 88.1866 -18.3453 -18.9248 -1.924 3.55271e-15 1.42109e-14 68.3114 -11.8989 -18.9734 8.7379 -0.0029 0.0005 61.5384 -57.125 67.3403 1.77636e-15 -46.6676 -7.10543e-15 159.742 75.0679 -153.579 -3.55271e-15 -40.1476 -7.10543e-15 -9.56433 -23.9285 10.382 -3.55271e-15 -8.8846 14.2294 0.0001 -9.93923e-17 -0 -8.7379 0.0029 -0.0005 -20.1457 2.94233 -24.862 -3.55271e-15 -46.6676 0 -115.909 60.8299 93.2992 0 -40.1476 0 2.91139 -16.6938 -8.13472 -3.55271e-15 -8.8846 14.2294 -1.59028e-15 -1.59028e-15 -0 
-2.63606 52.726 2.8378 1.11127 -3.92869 -87.5801 0 7.2397 6.66134e-16 3.44711 5.45172 -6.70433 0 16.546 8.88178e-16 6.50543 12.1517 -17.3423 1.77636e-15 34.2149 3.55271e-15 -4.18756 28.3519 4.92634 -3.55271e-15 6.2923 0 -1.55287 -35.202 11.9666 4.0639 26.6115 -1.1234 3.05141 -10.6943 -9.36226 14.1772 0 -1.77636e-15 -73.1462 7.20562 -35.7357 26.1234 0 7.10543e-15 -100.787 -6.44359 -89.9468 27.7188 1.42109e-14 0 2.45512 -38.5721 7.51591 2.2979 -0.4685 1.8313 37.1841 70.9488 -65.3921 5.2953 -7.10543e-15 0 -13.655 2.43914 4.23131 3.0181 -3.55271e-15 7.10543e-15 40.575 -4.26209 10.4488 9.3793 0.2991 2.5924 -15.7189 8.26171 2.10858 4.3461 0 0 -27.9756 -1.11866 5.59656 2.1666 1.77636e-15 -1.06581e-14 -30.2284 -1.57777 5.42757 9.4769 0.8376 0.2947 -15.5574 6.19104 1.80127 4.772 7.10543e-15 5.32907e-15 -44.2332 -4.15799 10.4286 2.8722 3.55271e-15 3.55271e-15 -38.4625 -3.11873 10.6456 8.6586 1.0176 -1.7016 -12.8096 4.05758 0.0154535 4.5461 0 1.77636e-15 -68.2419 -4.98725 7.35472 2.506 7.10543e-15 -3.55271e-15 -26.1841 0.226366 12.1003 7.6901 0.6618 -3.9096 -1.69592 -16.7036 -0.578566 3.2119 0 -7.10543e-15 -48.2121 -6.75384 15.0249 1.924 -3.55271e-15 -2.66454e-15 -25.7169 -1.92461 10.2066 -4.0677 26.6109 -1.1234 -9.02797 -10.8132 -10.3916 -14.1772 0 -8.88178e-16 41.2056 56.8831 25.3139 -26.1234 0 0 21.2854 -0.0491928 123.955 -27.7188 0 0 -21.2509 -2.08932 11.7835 -2.2979 -0.4684 1.8313 -92.2024 72.3373 115.748 -5.2953 1.42109e-14 -7.10543e-15 20.806 -0.164366 -7.80925 -3.0181 0 0 7.44353 -1.87408 -23.1505 -9.3793 0.2991 2.5924 -0.483211 -1.4043 -4.46204 -4.3461 1.77636e-15 0 11.3885 0.0663402 -2.1081 -2.1666 0 0 35.2115 -1.89994 -5.61244 -9.4769 0.8376 0.2947 -5.74449 -0.492517 -10.345 -4.772 -1.77636e-15 0 99.6664 -15.9162 -13.533 -2.8722 0 0 64.9769 -7.76868 -13.6635 -8.6586 1.0176 -1.7016 4.03544 -11.2401 -9.54017 -4.5461 1.77636e-15 -1.42109e-14 113.305 -9.33452 -6.15034 -2.506 -3.55271e-15 1.42109e-14 71.4335 -4.52062 -7.1353 -7.6901 0.6618 -3.9096 -3.28619 -26.781 -8.59919 -3.2119 -3.55271e-15 1.42109e-14 88.1866 -18.3453 -18.9248 -1.924 0 0 68.3114 -11.8989 -18.9734 8.7379 -0.0029 0.0005 70.4063 -59.0686 73.1915 -3.55271e-15 -46.6676 -7.10543e-15 158.177 71.6929 -147.873 -1.77636e-15 -40.1476 -7.10543e-15 -15.1787 -23.0812 10.7525 3.55271e-15 -8.8846 14.2294 0.0001 9.93923e-17 3.18055e-15 -8.7379 0.0029 -0.0005 -21.7038 0.532363 -27.3583 0 -46.6676 0 -117.982 60.0541 97.8192 0 -40.1476 8.88178e-16 3.14158 -25.1563 -6.49818 0 -8.8846 14.2294 -1.59028e-15 0 -0 
